<svg viewBox="0 0 22 22" xmlns="http://www.w3.org/2000/svg">
 <g clip-path="url(#clip0)">
  <path d="M4.7441 10.4919C3.536 10.4919 2.5562 11.4717 2.5562 12.6798C2.5562 13.8879 3.536 14.8677 4.7441 14.8677C5.9522 14.8677 6.93199 13.8879 6.93199 12.6798C6.93199 11.4717 5.9522 10.4919 4.7441 10.4919Z" />
  <path d="M15.1898 4.05963C14.2195 3.76474 12.883 3.59827 11.5275 3.59827C10.1577 3.59827 8.8687 3.76474 7.90794 4.05963C6.99949 4.34025 6.68082 4.65892 6.68082 4.7588C6.68557 4.76356 6.69033 4.76831 6.69033 4.77307C6.71411 4.87771 7.00424 5.20589 8.02684 5.50078C8.97334 5.77664 10.2195 5.92884 11.5322 5.92884C12.8878 5.92884 14.2243 5.75762 15.1898 5.46749C16.2267 5.15357 16.4502 4.83014 16.4502 4.76356C16.4502 4.69697 16.2267 4.37354 15.1898 4.05963Z"/>
  <path d="M15.4695 6.3674C14.4041 6.69082 13.0105 6.86681 11.5408 6.86681C10.1377 6.86681 8.80121 6.70509 7.76909 6.40545C7.41237 6.31032 7.06992 6.17715 6.74174 6.01068L6.77503 7.35195C7.30774 7.55171 7.8119 7.83709 8.25899 8.19381C8.2685 8.19857 8.28277 8.19857 8.29704 8.20332C9.21025 8.43638 10.3613 8.56004 11.5361 8.56004C12.8916 8.56004 14.2281 8.39357 15.1937 8.09868C16.2258 7.78477 16.4493 7.45659 16.4493 7.39475C16.4493 7.29963 16.4731 7.20926 16.5254 7.1284V5.93933C16.1877 6.12483 15.831 6.27227 15.4695 6.3674Z"/>
  <path d="M11.3311 14.9534C11.3216 14.8963 11.3216 14.844 11.3311 14.7869C10.8887 14.7822 10.4607 14.7584 10.0516 14.7251C9.83285 15.2911 9.52369 15.819 9.13844 16.2899C9.87566 16.4136 10.6129 16.4754 11.3501 16.4849L11.3311 14.9534Z" />
  <path d="M9.38594 11.7229C9.17191 10.6955 8.62494 9.7633 7.82588 9.08315C7.33599 8.65509 6.76048 8.33642 6.14216 8.14617C5.68555 8.00823 5.21468 7.93689 4.73905 7.93689C3.5595 7.93689 2.42274 8.37922 1.54759 9.17352C-0.38822 10.9333 -0.526152 13.9346 1.23367 15.8704C2.9935 17.8062 5.99471 17.9489 7.93052 16.1843C8.91983 15.2901 9.48583 14.0154 9.48107 12.6789C9.48107 12.3602 9.44778 12.0368 9.38594 11.7229ZM4.74381 15.8133C3.01252 15.8133 1.60466 14.4054 1.60466 12.6741C1.60466 10.9429 3.00777 9.535 4.74381 9.535C6.4751 9.53976 7.8782 10.9429 7.88296 12.6741C7.88296 14.4054 6.4751 15.8133 4.74381 15.8133Z"/>
  <path d="M11.3211 13.829L11.3021 12.2451C11.2926 12.2118 11.2831 12.1785 11.2783 12.1452C10.9787 12.1405 10.6885 12.131 10.4079 12.1119C10.4222 12.3022 10.4317 12.4877 10.4317 12.6732C10.4317 13.0442 10.3937 13.4199 10.3223 13.7861C10.641 13.8099 10.9787 13.8242 11.3211 13.829Z"/>
  <path d="M20.7052 11.2611C19.7397 10.9662 18.408 10.8092 17.0477 10.8092H17.0096C15.7349 10.8092 14.5221 10.9519 13.5898 11.2135C12.6624 11.4703 12.3056 11.7605 12.2248 11.9079C12.2391 11.9507 12.2486 11.9935 12.2486 12.0363C12.3627 12.1981 12.748 12.4787 13.6422 12.7212C14.5744 12.9733 15.7872 13.116 17.0477 13.116C18.4032 13.116 19.6922 12.9591 20.6672 12.6689C21.7231 12.355 21.9561 12.0268 21.9609 11.9555V11.9507C21.9466 11.8699 21.7041 11.5655 20.7052 11.2611Z" />
  <path d="M20.963 16.2071C19.8976 16.5305 18.5183 16.7065 17.0486 16.7065C15.7501 16.7065 14.4897 16.5638 13.4909 16.3022C13.0819 16.2024 12.6871 16.0597 12.3066 15.8742L12.3208 16.9491L12.3256 17.2392C12.3256 17.244 12.3256 17.244 12.3256 17.2487C12.3256 17.3534 12.63 17.6673 13.5385 17.9479C14.4945 18.238 15.7739 18.3998 17.1485 18.3998C18.5183 18.3998 19.8025 18.2333 20.7728 17.9336C21.7859 17.6197 21.9951 17.2915 21.9951 17.225V15.7743C21.7098 15.9598 21.3102 16.1025 20.963 16.2071Z" />
  <path d="M20.9307 13.5831C19.87 13.897 18.4954 14.0682 17.0495 14.0682C15.2802 14.0682 13.392 13.8019 12.2695 13.2169L12.2885 14.7198C12.6975 15.1764 14.4574 15.752 17.0448 15.752C18.4241 15.752 19.7178 15.5902 20.6928 15.2954C21.7154 14.9814 21.9342 14.658 21.9342 14.5914C21.9342 14.4963 21.9961 14.4107 22.0008 14.3393V13.1503C21.6584 13.3358 21.3017 13.4785 20.9307 13.5831Z" />
  <path d="M15.4595 9.01656C14.3941 9.33998 13.0005 9.51597 11.5309 9.51597C10.8127 9.51597 10.0897 9.4684 9.37626 9.37803C9.75676 9.91549 10.0469 10.5148 10.2229 11.1474C10.6319 11.1807 11.0695 11.1997 11.5309 11.1997C11.5451 11.1997 11.5546 11.1997 11.5689 11.1997C11.9018 10.8287 12.4869 10.5243 13.324 10.2865C14.2134 10.0344 15.3311 9.8822 16.5202 9.84891V8.57898C16.1825 8.76447 15.8305 8.91192 15.4595 9.01656Z" />
  </g>
</svg>
