<?xml version="1.0" encoding="UTF-8" standalone="no"?>
<svg width="809px" height="105px" viewBox="0 0 809 105" version="1.1" xmlns="http://www.w3.org/2000/svg" xmlns:xlink="http://www.w3.org/1999/xlink" xmlns:sketch="http://www.bohemiancoding.com/sketch/ns">
    <!-- Generator: Sketch 3.3.2 (12043) - http://www.bohemiancoding.com/sketch -->
    <title>Slice 1</title>
    <desc>Created with Sketch.</desc>
    <defs></defs>
    <g id="Page-1" stroke="none" stroke-width="1" fill="none" fill-rule="evenodd" sketch:type="MSPage">
        <g id="Grid" sketch:type="MSLayerGroup">
            <path d="M18.4951583,64.5 L806.77816,64.5" id="Line" stroke="#EEEEEE" stroke-linecap="square" sketch:type="MSShapeGroup"></path>
            <path d="M18.4951583,37.5 L806.77816,37.5" id="Line-Copy" stroke="#EEEEEE" stroke-linecap="square" sketch:type="MSShapeGroup"></path>
            <path d="M18.4951583,11.5 L806.77816,11.5" id="Line-Copy-2" stroke="#EEEEEE" stroke-linecap="square" sketch:type="MSShapeGroup"></path>
            <path d="M18.4951583,90.5 L806.77816,90.5" id="Line-Copy-4" stroke="#EEEEEE" stroke-linecap="square" sketch:type="MSShapeGroup"></path>
            <g id="Line-Copy-7-+-Line-Copy-5-+-Line-Copy-6" transform="translate(211.757066, 53.028986) rotate(-270.000000) translate(-211.757066, -53.028986) translate(160.728081, -134.471014)" stroke="#EEEEEE" stroke-linecap="square" sketch:type="MSShapeGroup">
                <path d="M0.179054016,373.429504 L101.062147,373.429504" id="Line-Copy-7"></path>
                <path d="M0.179054016,342.760881 L101.062147,342.760881" id="Line-Copy-5"></path>
                <path d="M0.179054016,311.760881 L101.062147,311.760881" id="Line-Copy-6"></path>
                <path d="M0.179054016,280.760881 L101.062147,280.760881" id="Line-Copy-10"></path>
                <path d="M0.179054016,249.760881 L101.062147,249.760881" id="Line-Copy-8"></path>
                <path d="M0.179054016,218.760881 L101.062147,218.760881" id="Line-Copy-9"></path>
                <path d="M0.179054016,187.760881 L101.062147,187.760881" id="Line-Copy-13"></path>
                <path d="M0.179054016,156.760881 L101.062147,156.760881" id="Line-Copy-11"></path>
                <path d="M0.179054016,125.760881 L101.062147,125.760881" id="Line-Copy-12"></path>
                <path d="M0.179054016,94.7608808 L101.062147,94.7608808" id="Line-Copy-17"></path>
                <path d="M0.179054016,63.7608808 L101.062147,63.7608808" id="Line-Copy-14"></path>
                <path d="M0.179054016,32.2945804 L101.062147,32.2945804" id="Line-Copy-15"></path>
                <path d="M0.179054016,2.29458042 L101.062147,2.29458042" id="Line-Copy-16"></path>
            </g>
            <g id="Line-Copy-7-+-Line-Copy-5-+-Line-Copy-6-Copy" transform="translate(615.757066, 53.028986) rotate(-270.000000) translate(-615.757066, -53.028986) translate(564.728081, -134.471014)" stroke="#EEEEEE" stroke-linecap="square" sketch:type="MSShapeGroup">
                <path d="M0.179054016,373.429504 L101.062147,373.429504" id="Line-Copy-7"></path>
                <path d="M0.179054016,342.760881 L101.062147,342.760881" id="Line-Copy-5"></path>
                <path d="M0.179054016,311.760881 L101.062147,311.760881" id="Line-Copy-6"></path>
                <path d="M0.179054016,280.760881 L101.062147,280.760881" id="Line-Copy-10"></path>
                <path d="M0.179054016,249.760881 L101.062147,249.760881" id="Line-Copy-8"></path>
                <path d="M0.179054016,218.760881 L101.062147,218.760881" id="Line-Copy-9"></path>
                <path d="M0.179054016,187.760881 L101.062147,187.760881" id="Line-Copy-13"></path>
                <path d="M0.179054016,156.760881 L101.062147,156.760881" id="Line-Copy-11"></path>
                <path d="M0.179054016,125.760881 L101.062147,125.760881" id="Line-Copy-12"></path>
                <path d="M0.179054016,94.7608808 L101.062147,94.7608808" id="Line-Copy-17"></path>
                <path d="M0.179054016,63.7608808 L101.062147,63.7608808" id="Line-Copy-14"></path>
                <path d="M0.179054016,32.2945804 L101.062147,32.2945804" id="Line-Copy-15"></path>
                <path d="M0.179054016,2.29458042 L101.062147,2.29458042" id="Line-Copy-16"></path>
            </g>
            <path d="M18.1401256,90.3420095 L90.2175759,76.187219 L162.98448,35.8934585 L233.702722,51.6547305 L303.311271,23.3422857 L376.518112,10.8426578 L447.170692,10.65366 L518.263209,37.1448531 L587.175739,63.9653606 L658.209159,48.5820842 L730.923533,77.7421555 L803.257066,90.4307812" id="Path-591" stroke="#FFC334" stroke-width="3" sketch:type="MSShapeGroup"></path>
            <text id="6" sketch:type="MSTextLayer" font-family="Lato" font-size="18" font-weight="686" line-spacing="26" fill="#909090">
                <tspan x="0" y="18">6</tspan>
                <tspan x="0" y="44">4</tspan>
                <tspan x="0" y="70">2</tspan>
                <tspan x="0" y="96">0</tspan>
            </text>
        </g>
    </g>
</svg>