<?xml version="1.0" encoding="UTF-8" standalone="no"?>
<svg width="649px" height="381px" viewBox="0 0 649 381" version="1.1" xmlns="http://www.w3.org/2000/svg" xmlns:xlink="http://www.w3.org/1999/xlink" xmlns:sketch="http://www.bohemiancoding.com/sketch/ns">
    <!-- Generator: Sketch 3.3.2 (12043) - http://www.bohemiancoding.com/sketch -->
    <title>Slice 1</title>
    <desc>Created with Sketch.</desc>
    <defs></defs>
    <g id="Page-1" stroke="none" stroke-width="1" fill="none" fill-rule="evenodd" sketch:type="MSPage">
        <g id="Grid-Copy" sketch:type="MSLayerGroup" transform="translate(0.000000, 1.000000)">
            <path d="M39.4951583,307.5 L647.775188,307.5" id="Line" stroke="#EEEEEE" stroke-linecap="square" sketch:type="MSShapeGroup"></path>
            <path d="M39.4951583,280.5 L647.775188,280.5" id="Line-Copy" stroke="#EEEEEE" stroke-linecap="square" sketch:type="MSShapeGroup"></path>
            <path d="M39.4951583,254.5 L647.775188,254.5" id="Line-Copy-2" stroke="#EEEEEE" stroke-linecap="square" sketch:type="MSShapeGroup"></path>
            <path d="M39.4951583,333.5 L647.775188,333.5" id="Line-Copy-4" stroke="#EEEEEE" stroke-linecap="square" sketch:type="MSShapeGroup"></path>
            <path d="M39.4951583,199.5 L647.775188,199.5" id="Line-Copy-20" stroke="#EEEEEE" stroke-linecap="square" sketch:type="MSShapeGroup"></path>
            <path d="M39.4951583,172.5 L647.775188,172.5" id="Line-Copy-3" stroke="#EEEEEE" stroke-linecap="square" sketch:type="MSShapeGroup"></path>
            <path d="M39.4951583,146.5 L647.775188,146.5" id="Line-Copy-18" stroke="#EEEEEE" stroke-linecap="square" sketch:type="MSShapeGroup"></path>
            <path d="M39.4951583,62.5 L647.775188,62.5" id="Line-Copy-21" stroke="#EEEEEE" stroke-linecap="square" sketch:type="MSShapeGroup"></path>
            <path d="M39.4951583,225.5 L647.775188,225.5" id="Line-Copy-19" stroke="#EEEEEE" stroke-linecap="square" sketch:type="MSShapeGroup"></path>
            <path d="M39.4951583,89.5 L647.775188,89.5" id="Line-Copy-24" stroke="#EEEEEE" stroke-linecap="square" sketch:type="MSShapeGroup"></path>
            <path d="M39.4951583,36.5 L647.775188,36.5" id="Line-Copy-22" stroke="#EEEEEE" stroke-linecap="square" sketch:type="MSShapeGroup"></path>
            <path d="M39.4951583,115.5 L647.775188,115.5" id="Line-Copy-23" stroke="#EEEEEE" stroke-linecap="square" sketch:type="MSShapeGroup"></path>
            <g id="Line-Copy-7-+-Line-Copy-5-+-Line-Copy-6" transform="translate(232.500027, 188.499956) rotate(-270.000000) translate(-232.500027, -188.499956) translate(45.000000, 1.000000)" stroke="#EEEEEE" stroke-linecap="square" sketch:type="MSShapeGroup">
                <path d="M0.657912998,373.429416 L371.341016,373.429416" id="Line-Copy-7"></path>
                <path d="M0.657912998,342.7608 L371.341016,342.7608" id="Line-Copy-5"></path>
                <path d="M0.657912998,311.760807 L371.341016,311.760807" id="Line-Copy-6"></path>
                <path d="M0.657912998,280.760814 L371.341016,280.760814" id="Line-Copy-10"></path>
                <path d="M0.657912998,249.760822 L371.341016,249.760822" id="Line-Copy-8"></path>
                <path d="M0.657912998,218.760829 L371.341016,218.760829" id="Line-Copy-9"></path>
                <path d="M0.657912998,187.760836 L371.341016,187.760836" id="Line-Copy-13"></path>
                <path d="M0.657912998,156.760844 L371.341016,156.760844" id="Line-Copy-11"></path>
                <path d="M0.657912998,125.760851 L371.341016,125.760851" id="Line-Copy-12"></path>
                <path d="M0.657912998,94.7608584 L371.341016,94.7608584" id="Line-Copy-17"></path>
                <path d="M0.657912998,63.7608657 L371.341016,63.7608657" id="Line-Copy-14"></path>
                <path d="M0.657912998,32.2945728 L371.341016,32.2945728" id="Line-Copy-15"></path>
                <path d="M0.657912998,2.29457988 L371.341016,2.29457988" id="Line-Copy-16"></path>
            </g>
            <g id="Line-Copy-7-+-Line-Copy-5-+-Line-Copy-6-Copy" transform="translate(544.000000, 192.000000) rotate(-270.000000) translate(-544.000000, -192.000000) translate(358.000000, 97.500000)" stroke="#EEEEEE" stroke-linecap="square" sketch:type="MSShapeGroup">
                <path d="M0.657912902,187.429504 L371.340962,187.429504" id="Line-Copy-7"></path>
                <path d="M0.657912902,156.760881 L371.340962,156.760881" id="Line-Copy-5"></path>
                <path d="M0.657912902,125.760881 L371.340962,125.760881" id="Line-Copy-6"></path>
                <path d="M0.657912902,94.7608808 L371.340962,94.7608808" id="Line-Copy-10"></path>
                <path d="M0.657912902,63.7608808 L371.340962,63.7608808" id="Line-Copy-8"></path>
                <path d="M0.657912902,32.7608808 L371.340962,32.7608808" id="Line-Copy-9"></path>
                <path d="M0.657912902,1.7608808 L371.340962,1.7608808" id="Line-Copy-13"></path>
            </g>
            <text id="60" sketch:type="MSTextLayer" font-family="Lato" font-size="18" font-weight="686" sketch:alignment="right" line-spacing="27" fill="#909090">
                <tspan x="9.16347826" y="42">60</tspan>
                <tspan x="9.16347826" y="69">55</tspan>
                <tspan x="9.16347826" y="96">50</tspan>
                <tspan x="9.16347826" y="123">45</tspan>
                <tspan x="9.16347826" y="150">40</tspan>
                <tspan x="9.16347826" y="177">35</tspan>
                <tspan x="9.16347826" y="204">30</tspan>
                <tspan x="9.16347826" y="231">25</tspan>
                <tspan x="9.16347826" y="258">15</tspan>
                <tspan x="9.16347826" y="285">10</tspan>
                <tspan x="19.6034783" y="312">5</tspan>
                <tspan x="19.6034783" y="339">0</tspan>
            </text>
            <rect id="Rectangle-1" fill="#CC9D2A" sketch:type="MSShapeGroup" x="76" y="172" width="62" height="164"></rect>
            <rect id="Rectangle-1-Copy" fill="#FFD162" sketch:type="MSShapeGroup" x="170" y="225" width="62" height="111"></rect>
            <rect id="Rectangle-1-Copy-3" fill="#FFC334" sketch:type="MSShapeGroup" x="263" y="38" width="62" height="299"></rect>
            <rect id="Rectangle-1-Copy-2" fill="#BF9F52" sketch:type="MSShapeGroup" x="357" y="282" width="62" height="54"></rect>
            <rect id="Rectangle-1-Copy-5" fill="#98741C" sketch:type="MSShapeGroup" x="450" y="134" width="62" height="201"></rect>
            <rect id="Rectangle-1-Copy-4" fill="#6E510C" sketch:type="MSShapeGroup" x="544" y="171" width="62" height="164"></rect>
        </g>
    </g>
</svg>