<?xml version="1.0" encoding="UTF-8" standalone="no"?>
<svg width="649px" height="378px" viewBox="0 0 649 378" version="1.1" xmlns="http://www.w3.org/2000/svg" xmlns:xlink="http://www.w3.org/1999/xlink" xmlns:sketch="http://www.bohemiancoding.com/sketch/ns">
    <!-- Generator: Sketch 3.3.2 (12043) - http://www.bohemiancoding.com/sketch -->
    <title>Slice 1</title>
    <desc>Created with Sketch.</desc>
    <defs></defs>
    <g id="Page-1" stroke="none" stroke-width="1" fill="none" fill-rule="evenodd" sketch:type="MSPage">
        <g id="Grid-Copy-2" sketch:type="MSLayerGroup" transform="translate(0.000000, 1.000000)">
            <path d="M39.4951583,305.5 L647.775188,305.5" id="Line" stroke="#EEEEEE" stroke-linecap="square" sketch:type="MSShapeGroup"></path>
            <path d="M39.4951583,278.5 L647.775188,278.5" id="Line-Copy" stroke="#EEEEEE" stroke-linecap="square" sketch:type="MSShapeGroup"></path>
            <path d="M39.4951583,252.5 L647.775188,252.5" id="Line-Copy-2" stroke="#EEEEEE" stroke-linecap="square" sketch:type="MSShapeGroup"></path>
            <path d="M39.4951583,331.5 L647.775188,331.5" id="Line-Copy-4" stroke="#EEEEEE" stroke-linecap="square" sketch:type="MSShapeGroup"></path>
            <path d="M39.4951583,197.5 L647.775188,197.5" id="Line-Copy-20" stroke="#EEEEEE" stroke-linecap="square" sketch:type="MSShapeGroup"></path>
            <path d="M39.4951583,170.5 L647.775188,170.5" id="Line-Copy-3" stroke="#EEEEEE" stroke-linecap="square" sketch:type="MSShapeGroup"></path>
            <path d="M39.4951583,144.5 L647.775188,144.5" id="Line-Copy-18" stroke="#EEEEEE" stroke-linecap="square" sketch:type="MSShapeGroup"></path>
            <path d="M39.4951583,60.5 L647.775188,60.5" id="Line-Copy-21" stroke="#EEEEEE" stroke-linecap="square" sketch:type="MSShapeGroup"></path>
            <path d="M39.4951583,223.5 L647.775188,223.5" id="Line-Copy-19" stroke="#EEEEEE" stroke-linecap="square" sketch:type="MSShapeGroup"></path>
            <path d="M39.4951583,87.5 L647.775188,87.5" id="Line-Copy-24" stroke="#EEEEEE" stroke-linecap="square" sketch:type="MSShapeGroup"></path>
            <path d="M39.4951583,34.5 L647.775188,34.5" id="Line-Copy-22" stroke="#EEEEEE" stroke-linecap="square" sketch:type="MSShapeGroup"></path>
            <path d="M39.4951583,113.5 L647.775188,113.5" id="Line-Copy-23" stroke="#EEEEEE" stroke-linecap="square" sketch:type="MSShapeGroup"></path>
            <g id="Line-Copy-7-+-Line-Copy-5-+-Line-Copy-6" transform="translate(232.500027, 188.500027) rotate(-270.000000) translate(-232.500027, -188.500027) translate(45.000000, 1.000072)" stroke="#EEEEEE" stroke-linecap="square" sketch:type="MSShapeGroup">
                <path d="M0.657912998,373.429416 L371.341016,373.429416" id="Line-Copy-7"></path>
                <path d="M0.657912998,342.7608 L371.341016,342.7608" id="Line-Copy-5"></path>
                <path d="M0.657912998,311.760807 L371.341016,311.760807" id="Line-Copy-6"></path>
                <path d="M0.657912998,280.760814 L371.341016,280.760814" id="Line-Copy-10"></path>
                <path d="M0.657912998,249.760822 L371.341016,249.760822" id="Line-Copy-8"></path>
                <path d="M0.657912998,218.760829 L371.341016,218.760829" id="Line-Copy-9"></path>
                <path d="M0.657912998,187.760836 L371.341016,187.760836" id="Line-Copy-13"></path>
                <path d="M0.657912998,156.760844 L371.341016,156.760844" id="Line-Copy-11"></path>
                <path d="M0.657912998,125.760851 L371.341016,125.760851" id="Line-Copy-12"></path>
                <path d="M0.657912998,94.7608584 L371.341016,94.7608584" id="Line-Copy-17"></path>
                <path d="M0.657912998,63.7608657 L371.341016,63.7608657" id="Line-Copy-14"></path>
                <path d="M0.657912998,32.2945728 L371.341016,32.2945728" id="Line-Copy-15"></path>
                <path d="M0.657912998,2.29457988 L371.341016,2.29457988" id="Line-Copy-16"></path>
            </g>
            <g id="Line-Copy-7-+-Line-Copy-5-+-Line-Copy-6-Copy" transform="translate(544.000000, 188.500000) rotate(-270.000000) translate(-544.000000, -188.500000) translate(358.000000, 94.000000)" stroke="#EEEEEE" stroke-linecap="square" sketch:type="MSShapeGroup">
                <path d="M0.657912902,187.429504 L371.340962,187.429504" id="Line-Copy-7"></path>
                <path d="M0.657912902,156.760881 L371.340962,156.760881" id="Line-Copy-5"></path>
                <path d="M0.657912902,125.760881 L371.340962,125.760881" id="Line-Copy-6"></path>
                <path d="M0.657912902,94.7608808 L371.340962,94.7608808" id="Line-Copy-10"></path>
                <path d="M0.657912902,63.7608808 L371.340962,63.7608808" id="Line-Copy-8"></path>
                <path d="M0.657912902,32.7608808 L371.340962,32.7608808" id="Line-Copy-9"></path>
                <path d="M0.657912902,1.7608808 L371.340962,1.7608808" id="Line-Copy-13"></path>
            </g>
            <text id="60" sketch:type="MSTextLayer" font-family="Lato" font-size="18" font-weight="686" sketch:alignment="right" line-spacing="27" fill="#909090">
                <tspan x="9.16347826" y="40">60</tspan>
                <tspan x="9.16347826" y="67">55</tspan>
                <tspan x="9.16347826" y="94">50</tspan>
                <tspan x="9.16347826" y="121">45</tspan>
                <tspan x="9.16347826" y="148">40</tspan>
                <tspan x="9.16347826" y="175">35</tspan>
                <tspan x="9.16347826" y="202">30</tspan>
                <tspan x="9.16347826" y="229">25</tspan>
                <tspan x="9.16347826" y="256">15</tspan>
                <tspan x="9.16347826" y="283">10</tspan>
                <tspan x="19.6034783" y="310">5</tspan>
                <tspan x="19.6034783" y="337">0</tspan>
            </text>
        </g>
        <path d="M46.9023438,279.636719 L140.605469,195.828125 L231.34375,254.914062 L324.789062,144.902344 L449.335938,114.472656 L543.554688,61.0234375 C543.554688,61.0234375 630.051032,87.6994574 635.257812,88.9375 C640.464593,90.1755426 639.414062,83.8164062 639.414062,83.8164062" id="Path-100" stroke="#FFC334" stroke-width="7" sketch:type="MSShapeGroup"></path>
        <path d="M46.828125,197.070312 L139.53125,170.863281 L233.941406,198.363281 L295.957031,60.4726562 L417.539062,86.1953125 L512.949219,115.140625 L638.5625,34.0429688" id="Path-101" stroke="#B88C21" stroke-width="7" sketch:type="MSShapeGroup"></path>
    </g>
</svg>