<?xml version="1.0" encoding="utf-8"?>
<!-- Generator: Adobe Illustrator 18.1.1, SVG Export Plug-In . SVG Version: 6.00 Build 0)  -->
<!DOCTYPE svg PUBLIC "-//W3C//DTD SVG 1.1//EN" "http://www.w3.org/Graphics/SVG/1.1/DTD/svg11.dtd">
<svg version="1.1" id="Layer_1" xmlns="http://www.w3.org/2000/svg" xmlns:xlink="http://www.w3.org/1999/xlink" x="0px" y="0px"
	 viewBox="0 0 612 792" enable-background="new 0 0 612 792" xml:space="preserve">
<g id="Layer_2" display="none">
	<rect x="-18.8" y="79" display="inline" fill="#AF2024" width="647.1" height="625.4"/>
</g>
<g id="Layer_1_1_">
	<circle fill="#181C21" cx="556.7" cy="561.3" r="48.3"/>
	<path fill="#181C21" d="M536.6,280.6c17.7-14.8,28.9-36.9,28.9-61.8c0-44.3-36-80.3-80.3-80.3c-15.7,0-30.4,4.7-42.7,12.3
		c-4.7-13.9-17.9-23.9-33.6-23.9c-11.4,0-21.5,5.4-28,13.6c-22.2-6.7-45.6-10.3-70-10.3c-90.8,0-169.8,49.5-212.1,122.8
		c-51.9,6.7-92.4,51-92.4,104.9c0,47.7,31.6,87.9,75.2,101.1c17.2,46.8,48.3,86.8,88.2,115.2c23.7,64.2,85.5,110.1,157.8,110.1
		c85.9,0,156.9-64.7,166.9-147.9c38-43.2,61.1-99.6,61.1-161.6C555.4,341.5,548.7,309.7,536.6,280.6 M311,566.4
		c-105.8,0-191.5-85.7-191.5-191.5S205.2,183.3,311,183.3S502.6,269,502.6,374.9C502.4,480.7,416.7,566.4,311,566.4"/>
	<circle fill="#181C21" cx="56.2" cy="227.4" r="27.5"/>
	<g>
		<path fill="#181C21" d="M306.6,542c1.1,0,2.5,0.2,3.6,0.2c-0.9,0-1.8,0-2.9-0.2C307,542,306.8,542,306.6,542z"/>
		<path fill="#181C21" d="M156.6,309.3L156.6,309.3l-0.2,0.4l0,0C156.4,309.5,156.6,309.5,156.6,309.3z"/>
		<path fill="#181C21" d="M397.2,226.7c-0.2-0.2-0.4-0.2-0.7-0.4c-0.2,0-0.2-0.2-0.4-0.2C396.5,226.5,396.7,226.5,397.2,226.7z"/>
		<path fill="#181C21" d="M344.4,524.1c-19.5-1.1-40.9-5.1-62.9-11.9c-6.5,13-11.6,20.8-15.2,22.4c13,3.8,25.5,6.3,37.1,6.9
			c0.4,0,0.9,0,1.3,0C318.2,541.8,331.8,535.7,344.4,524.1z"/>
		<path fill="#181C21" d="M305,541.8c-0.2,0-0.2,0-0.4,0c0.7,0,1.3,0,2,0c0.2,0,0.4,0,0.7,0C306.3,542,305.7,541.8,305,541.8z"/>
		<path display="none" fill="#181C21" d="M406.6,513.8c-0.9,0.7-1.6,1.1-2.5,1.6c4.3-2.7,8.3-5.6,12.1-8.5l-8.5,6.3
			C407.3,513.1,407,513.4,406.6,513.8z"/>
		<path fill="#181C21" d="M172.7,279.1c0.2-0.4,0.7-0.9,0.9-1.3C173.2,278.4,173,278.6,172.7,279.1z"/>
		<path fill="#181C21" d="M393.8,521.2c2.5-1.3,4.9-2.9,7.2-4.5c-11.9,5.4-28,8.1-46.8,7.6C340.8,536,326,542,311,542
			c0.7,0,1.3,0,2,0c25.3,0,49-5.6,70.5-15.4l0.7-0.4C387.1,524.8,390.5,523,393.8,521.2z"/>
		<path display="none" fill="#181C21" d="M383.5,526.6c6.9-3.1,13.4-6.7,19.7-10.7c-2.9,1.8-6.3,3.6-9.6,5.4
			C390.5,523.2,387.1,525,383.5,526.6z"/>
		<path fill="#181C21" d="M264.5,535.1c6,1.8,12.1,3.1,18.1,4.3c-5.8-1.1-11.6-2.5-17.5-4.3H264.5z"/>
		<path display="none" fill="#181C21" d="M151,421.2l-2.5-9.4C149.3,414.9,150.1,418,151,421.2z"/>
		<path fill="#181C21" d="M261.4,534c0.9,0.2,2,0.7,2.9,0.9l-2.5-0.7L261.4,534z"/>
		<path fill="#181C21" d="M288.7,540.4c-1.6-0.2-2.9-0.4-4.5-0.7C285.7,539.8,287.3,540.2,288.7,540.4z"/>
		<path fill="#181C21" d="M167.4,287.8l3.1-5.1C169.4,284.2,168.3,286,167.4,287.8z"/>
		<path fill="#181C21" d="M218.6,513.4c-0.2-0.2-0.4-0.2-0.7-0.4C218.4,513.1,218.6,513.1,218.6,513.4z"/>
		<path fill="#181C21" d="M239.2,525c-4.7-2.2-9.4-4.7-13.4-7.2l-1.3-0.9c10.7,6.7,22.4,12.1,34.5,16.1h0.2
			C252.4,530.8,245.7,528.1,239.2,525z"/>
		<path fill="#181C21" d="M296.3,541.3c-0.4,0-0.9,0-1.3-0.2C295.4,541.1,295.8,541.1,296.3,541.3z"/>
		<path fill="#181C21" d="M212.1,508.7c-0.2-0.2-0.4-0.4-0.9-0.7c1.3,0.9,2.5,1.8,3.8,2.7c-0.7-0.4-1.6-1.1-2.5-1.8
			C212.6,508.9,212.4,508.9,212.1,508.7z"/>
		<path fill="#181C21" d="M303.7,541.8c-1.1,0-2.2-0.2-3.4-0.2c2,0.2,4.3,0.2,6.3,0.4c-0.7,0-1.3,0-2,0
			C304.1,541.8,303.9,541.8,303.7,541.8z"/>
		<path fill="#181C21" d="M208.8,403.7c-20.1-13.4-35.4-27.7-45.2-41.4c-8.3,24.4-9.6,47.7-5.4,68.7c8.5,12.1,22.2,24.4,39.6,36.3
			C197.1,449.6,200.5,427.9,208.8,403.7z"/>
		<path fill="#181C21" d="M207.4,479.6c0.9,16.3,5.8,28.4,14.3,35.4c4.9,2.9,10.3,5.8,15.9,8.5c7.2,3.4,14.8,6.5,22.2,9
			c1.8-2.2,5.4-10.5,10.7-23.9c-12.3-4.3-24.6-9.2-36.5-14.8C224.2,489.2,215.5,484.5,207.4,479.6z"/>
		<path fill="#181C21" d="M212.1,394.8c9.4-24.4,22.4-48.3,37.6-70c-17.2-11.6-30.7-23.9-39.2-35.8c-18.8,18.6-34,40.5-43.6,64.4
			C176.8,367,192.2,381.1,212.1,394.8z"/>
		<path fill="#181C21" d="M213.9,276.2c20.1-17,43.6-30.4,68.5-38.7c-3.8-6.7-4.9-13-2.9-18.1c-25.7,3.4-49.9,12.3-70.5,26.2
			C205.6,254.2,207.4,264.8,213.9,276.2z"/>
		<path fill="#181C21" d="M456.7,368.4c-12.1,5.6-28.6,8.1-47.7,7.8c-0.4,26.6-4.7,53.5-12.5,78.1c21.9,0.4,41.2-2.7,55-9
			C459.2,420.7,460.5,394.3,456.7,368.4z"/>
		<path fill="#181C21" d="M381.7,463.2c-23-1.3-48.3-6-74.3-13.9c-8.5,23.9-16.6,43.6-23.3,58c22.6,6.7,45,11,65.1,12.1
			C361.6,506.2,372.8,487.2,381.7,463.2z"/>
		<path fill="#181C21" d="M217.7,282c8.3,11.4,21,23.3,37.6,34.5c15.7-21.3,33.3-40.3,51.5-55.3c-9.8-6.7-17.5-13.6-22.2-20.4
			C260.5,250,237.4,264.3,217.7,282z"/>
		<path fill="#181C21" d="M359.4,519.9c19.2,0.2,36-2.2,48.3-8.1c17.5-13.9,31.8-33.1,40.7-57.3c-14.1,6.5-33.1,9.4-55.3,9
			C384.4,487.6,372.6,506.4,359.4,519.9z"/>
		<path fill="#181C21" d="M337.4,354.3c21.5,6.5,42.7,10.3,62,11.6c0.7-26.4-2-52.4-7.4-75.6c-11.2-0.7-23.7-3.1-36.5-6.9
			C350.6,304.8,344.6,329,337.4,354.3z"/>
		<path fill="#181C21" d="M156.2,310.2c-0.9,2.5-2,4.9-2.9,7.4l0.4-1.1L156.2,310.2z"/>
		<path fill="#181C21" d="M454.9,358.7c-5.1-25.7-15.7-50.6-30.4-72.7c-6.9,3.1-16.3,4.7-27.1,4.5c7.2,23.3,11.2,49.2,11.4,75.9
			C427.4,366.6,443.3,364.1,454.9,358.7z"/>
		<path fill="#181C21" d="M465.2,352.5c7.4-6,10.5-13.6,10.1-22.2c-7.4-22.8-20.6-43.6-38.7-61.1c0.2,4.9-1.6,9.6-6,13.2
			c-0.9,0.7-1.8,1.3-2.7,2c15.7,21.5,26.9,46.1,32.7,71.4C462.3,354.7,463.9,353.6,465.2,352.5z"/>
		<path fill="#181C21" d="M219.5,410.7c-8.3,24.2-12.3,45.4-12.3,62.7c8.3,5.1,17.5,10.1,27.3,14.8c12.5,5.8,25.3,11.2,37.8,15.4
			c5.6-14.5,13-34.5,21.5-58.4c-14.5-4.9-29.1-10.7-43.2-17.7C239.4,422.1,229.1,416.5,219.5,410.7z"/>
		<path fill="#181C21" d="M285.7,344.9c-9.6-4.7-18.6-9.4-26.9-14.5c-14.3,22.4-26.9,46.8-36,71.2c9.6,5.8,19.9,11.4,31.1,16.8
			c14.1,6.7,28.6,12.5,43.2,17.5c8.7-24.6,17.7-50.6,26-75.6C310.6,355.8,298.1,350.9,285.7,344.9z"/>
		<path fill="#181C21" d="M399,376c-19.9-1.3-41.8-5.4-64.2-12.1c-7.4,25.5-15.7,51.7-24.2,76.3c26,7.8,51.5,12.5,74.3,13.9
			C392.9,429.2,397.6,402.4,399,376z"/>
		<path fill="#181C21" d="M264.3,322c7.8,4.9,16.6,9.6,26,14.1c11.9,5.6,23.9,10.5,36,14.5c8.3-24.8,15.9-48.8,22.4-69.4
			c-7.2-2.5-14.3-5.4-21.3-8.7c-5.6-2.7-10.5-5.4-15.2-8.3C295.6,280.4,279,300.3,264.3,322z"/>
		<path fill="#181C21" d="M470.8,433c-2,5.1-5.4,9.8-10.3,13.9c-1.8,1.3-3.6,2.7-5.6,4c-9.2,23.9-23.7,43.4-41.6,57.7
			c1.1-0.7,2-1.3,3.1-2.2c27.3-21.3,47.9-50.6,58-84.4l-2.5,7.6L470.8,433z"/>
		<path fill="#181C21" d="M204.1,246c1.6-2.5,3.6-4.7,6.3-6.9c0.7-0.4,1.3-1.1,2-1.6l6.7-4.7c0.9-0.7,1.8-1.3,2.7-1.8
			c-17.9,11.4-33.3,26.2-45.9,43.2C184.2,263.4,193.6,254,204.1,246z"/>
		<path fill="#181C21" d="M162.5,346.2c9.6-23.9,25.1-45.6,44.3-63.5c-6.7-11.6-8.7-22.6-4.9-32c-16.3,12.3-29.5,28-39.4,46.3
			c-2.2,4.3-4.3,8.7-6,12.5C152.4,320.3,154.6,333,162.5,346.2z"/>
		<path fill="#181C21" d="M318.6,204.3c1.3,0,2.7,0,4,0.2C321.3,204.6,320,204.6,318.6,204.3z"/>
		<path fill="#181C21" d="M294,237.5c4.3,6,11.2,12.3,19.9,18.1c17-13,34.2-22.4,50.6-26.9C341,226.7,317.1,229.9,294,237.5z"/>
		<path fill="#181C21" d="M293.8,212.4c-1.3,1.1-2.2,2.2-3.1,3.6c23.9-0.9,49,3.1,73.6,13.2c-18.6-13.4-38-20.6-56.8-22.6
			C301.9,207.5,297.2,209.5,293.8,212.4z"/>
		<path fill="#181C21" d="M156.4,309.7v-0.2v-0.2C156.6,309.5,156.4,309.5,156.4,309.7z"/>
		<path fill="#181C21" d="M159.1,355.4c-7.4-12.8-9.8-24.6-6.5-35.1c-5.4,16.6-8.5,34.5-8.5,52.8c0,13.2,1.6,26,4.5,38.3
			c1.1,4.5,3.1,9,5.8,13.6C149.7,403.5,150.8,379.8,159.1,355.4z"/>
		<path fill="#181C21" d="M289.6,218.2c-2,4.7-0.9,10.3,2.5,16.3c23.5-6.7,48.3-8.7,72.3-5.6C339.2,219.8,313.7,216.4,289.6,218.2z"
			/>
		<path display="none" fill="#181C21" d="M166,290c-3.4,6-6.5,12.5-9.2,19c1.8-4.3,3.8-8.3,5.8-12.3
			C163.8,294.5,164.9,292.3,166,290z"/>
		<path fill="#181C21" d="M348,207.9c-0.7,0-1.1-0.2-1.6-0.2c7.2,1.6,13.4,8.3,17.9,21.3c7.4-8.7,12.5-12.1,15.7-10.7
			c1.8,0.7,4,1.8,5.8,2.7c-4.9-2.2-12.1,0.2-21.5,8.1c19.9-1.6,36.9,2.2,50.6,10.3c-4.7-4-10.5-8.3-17-12.1
			c-0.2-0.2-0.4-0.2-0.7-0.4c-0.2-0.2-0.7-0.4-0.9-0.4c-0.9-0.4-1.8-1.1-2.7-1.6l0,0c-0.7-0.4-1.3-0.7-2-1.1
			c-14.1-7.4-29.5-13-45.9-16.1l0.7,0.2L348,207.9z"/>
		<path fill="#181C21" d="M393.4,224.7c0.4,0.2,1.1,0.7,1.6,0.9c-0.9-0.7-2-1.1-3.1-1.6C392.5,224,392.9,224.5,393.4,224.7
			L393.4,224.7z"/>
		<path fill="#181C21" d="M172.7,467c-1.8-2.7-3.6-5.6-5.1-8.1l-0.4-0.7c-4.7-8.1-8.3-16.6-11-25.5c-2.2-4-4-7.8-5.1-11.4
			c5.4,17.9,13.4,34.5,24.2,49.5c-0.7-0.9-1.3-2-2-2.9C173,467.5,172.7,467.3,172.7,467z"/>
		<path fill="#181C21" d="M318,204.3c-1.8,0-3.4-0.2-5.1-0.2c-7.6,0-15.2,0.7-22.8,1.6c4.7-0.7,9.4-0.9,14.1-0.7
			C308.6,204.6,313.3,204.3,318,204.3z"/>
		<path fill="#181C21" d="M217.5,234.1c-2.5,2-4.5,4.3-6,6.5c20.4-13.4,44.1-21.7,69.6-24.2c0.9-1.3,2-2.7,3.6-3.8
			c3.8-3.1,9-5.4,15.2-6.7c-7.6-0.2-15.2,0.7-22.4,2.2c3.6-0.7,8.3-1.6,12.1-2.2c-24.6,3.4-47.4,12.1-67.4,25.1l-2.7,2
			C218.6,233.2,217.9,233.7,217.5,234.1z"/>
		<path fill="#181C21" d="M340.8,206.6c-10.7-1.8-20.8-2-29.1-0.9c17.7,2,35.8,9.6,52.8,23.3C357.8,215.8,349.5,208.4,340.8,206.6z"
			/>
		<path fill="#181C21" d="M339.9,206.4h0.7c-4-0.7-7.8-1.1-11.9-1.6h0.2C332.1,205.5,336.5,205.9,339.9,206.4z"/>
		<path display="none" fill="#181C21" d="M424,246c-3.6-3.1-7.4-6.3-11.4-9.2c2.7,2,5.1,3.8,7.4,5.8
			C421.4,243.7,422.7,244.8,424,246z"/>
		<path fill="#181C21" d="M423.8,246.2c6.9,6.7,11.2,13.6,12.5,19.9c17.9,16.3,31.1,36.7,38.5,58.9c-0.2-1.3-0.7-2.7-1.1-4l0,0
			c-8.5-26.4-23.5-49.9-43-68.9l1.6,1.3C429.6,250.9,426.7,248.4,423.8,246.2z"/>
		<path fill="#181C21" d="M332.1,266.1c6.3,2.9,12.5,5.6,19,7.6c5.8-18.6,10.3-34,13.2-44.8c-14.5,5.4-30.2,15.9-45.6,29.8
			C322.7,261.2,327.4,263.6,332.1,266.1z"/>
		<path fill="#181C21" d="M401.9,229.6c-1.6-0.9-3.1-1.8-4.7-2.7c0.2,0,0.2,0.2,0.4,0.2C398.8,227.8,400.1,228.5,401.9,229.6z"/>
		<path fill="#181C21" d="M477.7,338.8c0.4,8.7-2.9,16.8-10.5,23c-1.6,1.1-3.1,2.2-4.7,3.4c4.5,25.5,3.4,51.9-4.3,76.5
			c2-1.3,3.8-2.5,5.6-4c5.4-4.5,9-9.8,10.7-15.7c4.7-15.4,7.2-32,7.2-49c0-3.8-0.2-7.4-0.4-11.2c-0.2-2.5-0.4-4.5-0.4-6.3
			C480.2,350,479.3,344.4,477.7,338.8z"/>
		<path fill="#181C21" d="M481.1,357.4c-0.2-1.3-0.2-2.5-0.4-3.6c0,0.7,0.2,1.3,0.2,2C480.9,356.3,481.1,357,481.1,357.4z"/>
		<path fill="#181C21" d="M212.6,509.1c1.1,0.9,2.2,1.6,3.6,2.5c-9.8-7.8-15.9-20.8-17.9-37.6c-17-11.4-30-23.5-38.3-34.9
			c2.9,10.1,7.2,19.7,12.5,28.2c0.2,0.2,0.2,0.4,0.4,0.7c0.7,1.1,1.3,2,2,2.9c9.8,13.9,21.7,26.2,35.1,36.5c0.7,0.4,1.3,0.9,1.8,1.3
			C212.4,508.9,212.6,508.9,212.6,509.1z"/>
		<path fill="#181C21" d="M418,242.4c-14.5-9-32.7-13.9-53.7-13.4c25.3,6,47.2,16.8,65.1,31.3C428.1,254.7,424.3,248.4,418,242.4z"
			/>
		<path display="none" fill="#181C21" d="M476.8,332.1c-0.9-3.8-2-7.4-3.1-11l2.9,10.5C476.8,331.9,476.8,331.9,476.8,332.1z"/>
		<path fill="#181C21" d="M389.6,281.8c-5.8-20.8-14.3-39.2-25.3-52.8c-0.7,11.4-3.4,27.7-7.2,46.8
			C368.3,279.1,379.5,281.1,389.6,281.8z"/>
		<path fill="#181C21" d="M418.9,278c-14.8-19.7-33.1-36.7-54.6-49c12.8,13.9,23,32,30.4,53C404.3,282,412.8,280.9,418.9,278z"/>
		<path fill="#181C21" d="M405.9,232.3c1.1,0.7,2.2,1.6,3.4,2.2C408.1,233.7,407,233,405.9,232.3z"/>
		<path fill="#181C21" d="M425.6,247.3l1.6,1.6C426.7,248.4,426.3,248,425.6,247.3z"/>
		<path fill="#181C21" d="M422,276.4c0.9-0.4,1.6-1.1,2.5-1.8c3.8-3.4,5.6-7.2,5.4-11.6c-17.9-15.2-40.1-27.1-65.3-34
			C386.9,240.6,406.4,257.2,422,276.4z"/>
		<line fill="#181C21" x1="156.6" y1="309.3" x2="156.4" y2="310"/>
		<path display="none" fill="#181C21" d="M306.6,542c-0.7,0-1.3,0-2,0"/>
		<path display="none" fill="#181C21" d="M306.6,542c1.1,0,2.5,0.2,3.6,0.2"/>
		<path display="none" fill="#181C21" d="M474.6,422.1c-1.8,5.8-5.4,11.2-10.7,15.7c-1.8,1.3-3.6,2.7-5.6,4
			c7.6-24.6,8.7-50.8,4.3-76.5c1.8-1.1,3.4-2.2,4.7-3.4c7.6-6.5,11-14.3,10.5-23c1.3,5.6,2.5,11.2,3.1,17c0-0.7-0.2-1.3-0.2-2
			c-0.7-6.5-1.1-8.5-2.2-14.8c-0.4-2-0.9-3.8-1.3-5.8c0-0.4-0.2-0.7-0.2-1.1c0-0.2,0-0.2-0.2-0.4l-2.9-10.5l0,0v-0.2l0,0
			c0.4,1.3,0.9,2.7,1.1,4c-7.2-22.2-20.4-42.3-38.5-58.9c-1.3-6.3-5.6-13-12.5-19.9c2.9,2.2,5.8,4.7,8.5,7.4l-1.6-1.3l-2.9-2.7
			l-0.4-0.4l-1.6-1.6l-0.9-0.9c-0.2-0.2-0.4-0.4-0.7-0.4c-1.3-1.1-2.7-2.2-4-3.4c-2.2-2-4.7-4-7.4-5.8c-0.4-0.2-0.7-0.7-1.1-0.9
			c-0.7-0.4-1.3-0.9-2.2-1.6c-1.1-0.7-2.2-1.6-3.4-2.2c-1.1-0.7-2.2-1.6-3.4-2.2c-0.2-0.2-0.4-0.2-0.7-0.4c-1.8-1.1-3.1-1.8-4.3-2.5
			c6.7,3.8,12.3,8.1,17,12.1c-13.4-8.1-30.4-11.9-50.6-10.3c21.3-0.4,39.4,4.5,53.7,13.4c6,6,10.1,12.3,11.2,17.7
			c-17.9-14.3-39.8-25.3-65.1-31.3c25.5,7.2,47.7,19,65.6,34.2c0.2,4.5-1.6,8.5-5.4,11.6c-0.7,0.7-1.6,1.1-2.5,1.8
			c-15.7-19.2-35.1-35.8-57.7-47.4c21.5,12.3,39.8,29.3,54.6,49c-6.3,2.9-14.5,4-24.2,4c-7.4-21-17.7-39.4-30.4-53
			c11,13.6,19.5,32,25.3,52.8c-10.1-0.7-21.3-2.7-32.7-6c4-19,6.5-35.1,7.2-46.8c-2.9,10.7-7.4,26.4-13.2,44.8
			c-6.5-2.2-12.8-4.7-19-7.6c-4.9-2.2-9.4-4.7-13.6-7.4c15.7-13.9,31.1-24.4,45.6-29.8c-16.3,4.5-33.6,13.6-50.6,26.9
			c-8.7-5.8-15.4-12.1-19.9-18.1c23-7.6,47-10.7,70.3-8.5c-23.3-3.6-47.9-1.3-71.4,5.1c-3.4-5.8-4.5-11.4-2.5-16.3
			c24.4-1.8,49.9,1.6,74.7,10.7c-24.6-9.8-49.7-14.1-73.6-13.2c0.9-1.3,1.8-2.5,3.1-3.6c3.4-2.7,8.1-4.7,13.4-6
			c19,1.8,38.3,9.2,56.8,22.6c-17-13.6-35.1-21.3-52.8-23.3c8.3-1.1,18.3-0.7,29.1,0.9c9,1.8,17,9,23.5,22.4
			c-4.5-13-10.7-19.7-17.9-21.3c0.7,0,1.1,0.2,1.6,0.2l-1.8-0.4l-0.7-0.2l-3.8-0.7l-1.3-0.2h-0.7c-3.4-0.4-7.8-1.1-11.2-1.3h-0.2
			l-5.1-0.4c-0.2,0-0.4,0-0.4,0c-1.3,0-2.7-0.2-4-0.2c-0.2,0-0.4,0-0.7,0c-4.9,0-9.4,0.2-13.6,0.7c-4.7-0.2-9.4,0-14.1,0.7
			c-0.2,0-0.4,0-0.4,0c-0.2,0-0.2,0-0.4,0c-3.6,0.7-8.5,1.3-12.1,2.2c7.4-1.6,14.8-2.2,22.4-2.2c-6.3,1.3-11.4,3.6-15.2,6.7
			c-1.6,1.1-2.7,2.5-3.6,3.8c-25.3,2.5-49.2,11-69.6,24.2c1.6-2.2,3.6-4.5,6-6.5c0.4-0.4,1.1-0.9,1.6-1.3l-6.7,4.7
			c-0.7,0.4-1.3,1.1-2,1.6c-2.5,2.2-4.5,4.5-6.3,6.9c-10.5,8.1-19.9,17.5-28,28.2c-0.9,1.1-1.8,2.5-2.7,3.6
			c-0.2,0.4-0.7,0.9-0.9,1.3c-0.2,0.4-0.7,0.9-0.9,1.3l-1.3,2.2l-3.1,5.1l-0.9,1.3c-0.2,0.2-0.2,0.7-0.4,0.9c-1.1,2-2.2,4.5-3.4,6.7
			c9.6-18.3,23-33.8,39.2-46.3c-3.8,9.4-1.8,20.4,4.9,32c-19.2,17.9-34.5,39.6-44.3,63.5c-7.8-13.4-10.1-26-5.8-36.7v0.2l0,0
			l-0.2,0.4l-2.5,6.5l-0.4,1.1l-0.9,2.5v0.2c-3.4,10.3-0.9,22.4,6.5,35.1c-8.1,24.4-9.4,48.1-4.7,69.6c-2.7-4.7-4.7-9.2-5.8-13.6
			c0-0.2-0.2-0.4-0.2-0.9l0.4,1.3l2.5,9.4v0.2l0,0c1.1,3.8,2.9,7.6,5.1,11.4c2.7,9,6.3,17.5,11,25.5l0.4,0.7
			c1.6,2.5,3.4,5.4,5.1,8.1c-5.6-8.7-9.6-18.1-12.5-28.2c8.3,11.6,21.3,23.7,38.3,34.9c1.8,16.8,8.1,29.8,17.9,37.6
			c-1.1-0.9-2.5-1.6-3.6-2.5c0.9,0.7,1.8,1.3,2.5,1.8c1.1,0.9,2.2,1.6,2.9,2c0.2,0.2,0.4,0.2,0.7,0.4c1.3,0.9,2.5,1.8,4.7,2.9
			l1.1,0.7l1.3,0.9c4,2.5,8.7,4.9,13.4,7.2c6.5,3.1,13.2,5.8,19.9,8.1h-0.2l0,0l2.5,0.9l0.4,0.2l2.7,0.9h0.2l0,0h0.7
			c5.8,1.8,11.9,3.1,17.5,4.3c0.4,0,1.1,0.2,1.6,0.2c1.6,0.2,2.9,0.4,4.5,0.7c0.2,0,0.4,0,0.4,0c1.6,0.2,3.8,0.4,5.6,0.7
			c0.4,0,0.9,0,1.3,0.2c0.4,0,0.7,0,1.1,0c0.9,0,2,0.2,2.9,0.2c1.1,0,2.2,0.2,3.4,0.2c-11.4-0.9-24.2-3.1-37.1-6.9
			c3.6-1.8,8.7-9.4,15.2-22.4c21.9,6.5,43.4,10.5,62.9,11.9c-12.5,11.6-26.2,17.9-39.6,17.7c0.7,0,1.6,0,2.2,0.2c1.1,0,2,0,2.9,0.2
			h0.4c0.2,0,0.4,0,0.7,0c15,0,29.8-6,43.2-17.7c18.6,0.2,34.7-2.2,46.8-7.6c-2.2,1.6-4.7,3.1-7.2,4.5c3.4-1.8,6.7-3.8,9.6-5.4
			c0,0,0.2,0,0.2-0.2c0.2-0.2,0.4-0.2,0.4-0.4c0.9-0.4,1.6-1.1,2.5-1.6c0.4-0.2,0.7-0.4,1.1-0.7l8.5-6.3l0.9-0.7
			c-0.2,0.2-0.4,0.2-0.7,0.4c-0.9,0.7-2,1.3-3.1,2.2c18.1-14.1,32.7-33.6,41.6-57.7c2-1.3,3.8-2.5,5.6-4c4.9-4,8.3-8.7,10.3-13.9
			l1.3-3.4L474.6,422.1L474.6,422.1L474.6,422.1z M430.7,282.4c4.3-3.6,6.3-8.1,6-13.2c18.1,17.2,31.3,38.3,38.7,61.1
			c0.4,8.5-2.9,16.1-10.1,22.2c-1.3,1.1-2.9,2.2-4.5,3.4c-5.8-25.5-17-49.9-32.7-71.4C429,283.8,429.9,283.1,430.7,282.4z
			 M424.7,286c14.8,21.9,25.1,47,30.4,72.7c-11.6,5.4-27.5,7.8-45.9,7.6c-0.4-26.6-4.3-52.6-11.4-75.9
			C408.4,290.7,417.8,289.2,424.7,286z M391.8,290.3c5.6,23,8.1,49.2,7.4,75.6c-19-1.1-40.3-5.1-62-11.6
			c7.2-25.3,13.2-49.7,17.9-70.9C368.1,287.4,380.6,289.6,391.8,290.3z M254,418.3c-11.2-5.4-21.5-11-31.1-16.8
			c9.2-24.4,21.7-48.6,36-71.2c8.3,5.1,17.2,9.8,26.9,14.5c12.3,5.8,24.8,11,37.4,15.2c-8.5,25.1-17.2,51-26,75.6
			C282.6,431,268.1,425,254,418.3z M294,445.1c-8.5,23.9-15.9,43.9-21.5,58.4c-12.8-4.3-25.5-9.4-37.8-15.4
			c-9.8-4.7-18.8-9.6-27.3-14.8c0-17.2,4-38.5,12.3-62.7c9.6,5.8,19.9,11.4,31.1,16.8C264.9,434.2,279.5,440.2,294,445.1z
			 M334.8,363.9c22.4,6.7,44.5,10.7,64.2,12.1c-1.3,26.6-6,53.5-14.1,78.1c-23-1.6-48.3-6-74.3-13.9
			C319.1,415.4,327.4,389.4,334.8,363.9z M327.6,272.8c6.9,3.4,14.1,6.3,21.3,8.7c-6.5,20.6-14.1,44.5-22.4,69.4
			c-12.1-4-24.2-9-36-14.5c-9.4-4.5-17.9-9.2-26-14.1c14.8-21.9,31.1-41.6,47.9-57.7C316.9,267.4,322,270.1,327.6,272.8z M307,261.2
			c-18.1,15-35.8,34-51.5,55.3c-16.8-11.2-29.5-23-37.6-34.5c19.7-17.7,42.7-31.8,66.9-41.2C289.6,247.5,297.2,254.5,307,261.2z
			 M279.7,219.1c-2.2,5.4-1.1,11.6,2.9,18.1c-25.1,8.3-48.6,21.7-68.5,38.7c-6.5-11.2-8.5-21.9-4.7-30.9
			C229.8,231.4,254,222.5,279.7,219.1z M210.6,288.7c8.5,11.9,21.7,24.2,39.2,35.8c-15.2,21.9-28.2,45.9-37.6,70
			c-19.9-13.4-35.4-27.7-45.2-41.4C176.6,329.2,191.8,307.3,210.6,288.7z M158.2,431c-4.3-21-2.9-44.3,5.4-68.7
			c9.8,13.6,25.3,28,45.2,41.4c-8.3,24.2-11.9,45.9-11,63.5C180.4,455.6,166.9,443.1,158.2,431z M259.6,532.6
			c-7.4-2.5-14.8-5.6-22.2-9c-5.8-2.7-11-5.6-15.9-8.5c-8.3-6.9-13.2-19-14.3-35.4c8.1,4.9,16.8,9.6,26.4,14.1
			c12.1,5.8,24.4,10.7,36.5,14.8C264.9,522.1,261.4,530.1,259.6,532.6z M284,507.1c6.7-14.3,14.5-33.8,23.3-58
			c26,7.8,51.5,12.5,74.3,13.9c-9,23.9-20.1,43-32.4,56.2C328.9,518.1,306.8,514,284,507.1z M407.7,511.8
			c-12.3,5.6-29.1,8.3-48.3,8.1c13.2-13.2,25.1-32,34-56.2c21.9,0.4,41.2-2.7,55.3-9C439.3,478.7,425.2,497.9,407.7,511.8z
			 M451.6,445.3c-14.1,6.5-33.1,9.4-55,9c8.1-24.8,12.1-51.7,12.5-78.1c19,0.2,35.6-2.2,47.7-7.8
			C460.5,394.3,459.2,420.7,451.6,445.3z"/>
		<path fill="#181C21" d="M172.7,467c0.2,0.2,0.2,0.4,0.4,0.7C173,467.5,172.7,467.3,172.7,467z"/>
		<path display="none" fill="#181C21" d="M212.6,509.1c-0.2,0-0.2-0.2-0.4-0.4C212.4,508.9,212.6,508.9,212.6,509.1z"/>
		<path fill="#181C21" d="M175.2,470.8L175.2,470.8L175.2,470.8c-0.7-0.9-1.3-2-2-2.9C173.9,468.8,174.5,470,175.2,470.8z"/>
		<path display="none" fill="#181C21" d="M156.6,309.5c1.8-3.8,3.8-8.3,6-12.5c-2,4-4,8.1-5.8,12.3c0,0,0,0,0,0.2
			C156.6,309.3,156.6,309.3,156.6,309.5C156.6,309.3,156.6,309.5,156.6,309.5z"/>
		<path display="none" fill="#181C21" d="M305,541.8c-0.4,0-0.9,0-1.3,0c0.2,0,0.7,0,0.9,0C304.5,541.8,304.8,541.8,305,541.8z"/>
		<path display="none" fill="#181C21" d="M210.3,507.3c-0.4-0.4-0.9-0.7-1.6-1.1l2.5,2l0,0c0.2,0.2,0.4,0.4,0.9,0.7
			C211.5,508.2,210.8,507.8,210.3,507.3z"/>
		<path display="none" fill="#181C21" d="M384.2,526.3l-0.7,0.4l0,0c0,0,0,0,0.2,0c3.4-1.6,6.9-3.4,10.1-5.4
			C390.5,523,387.1,524.8,384.2,526.3z"/>
		<path display="none" fill="#181C21" d="M397.6,227.2c-0.2,0-0.2-0.2-0.4-0.2c-0.2-0.2-0.4-0.2-0.9-0.4c0.2,0,0.4,0.2,0.7,0.4
			C397.2,226.9,397.4,226.9,397.6,227.2z"/>
		<path display="none" fill="#181C21" d="M385.8,220.7c-1.8-0.7-4-1.8-5.8-2.7c-3.1-1.3-8.3,2-15.7,10.7
			C373.7,220.9,380.8,218.4,385.8,220.7z"/>
		<path display="none" fill="#181C21" d="M481.5,362.1c0,0.9,0.2,2,0.2,3.1c-0.2-2.7-0.4-5.1-0.7-7.8c0-0.4-0.2-1.1-0.2-1.6
			C481.1,357.6,481.3,359.6,481.5,362.1z"/>
		<path display="none" fill="#181C21" d="M392,223.8c-0.7-0.4-1.3-0.7-2.2-1.1c0.4,0.2,1.1,0.4,1.6,0.9c0.7,0.4,1.3,0.7,2,1.1
			C392.9,224.5,392.5,224,392,223.8z"/>
		<path display="none" fill="#181C21" d="M396.1,226.3c0.2,0,0.2,0.2,0.4,0.2c-0.4-0.2-1.1-0.7-1.6-0.9c-0.4-0.2-1.1-0.7-1.6-0.9
			C394.3,225.2,395.2,225.6,396.1,226.3z"/>
		<path display="none" fill="#181C21" d="M222,231L222,231L222,231c-1.1,0.7-2,1.3-2.7,2L222,231z"/>
		<path fill="#181C21" d="M393.4,224.7L393.4,224.7L393.4,224.7z"/>
	</g>
</g>
</svg>
